<svg width="44" height="44" viewBox="0 0 44 44" fill="none" xmlns="http://www.w3.org/2000/svg">
<rect width="44" height="44" rx="8" fill="white"/>
<path d="M13.299 27.5958C13.731 28.9278 15.044 29.7778 16.445 29.7778H16.5C16.6285 30.4051 16.9697 30.9688 17.4658 31.3737C17.962 31.7785 18.5826 31.9997 19.223 31.9998C19.68 31.9998 20.107 31.8848 20.485 31.6868C20.6429 31.6005 20.7743 31.4727 20.865 31.3173C20.9558 31.1619 21.0024 30.9847 21 30.8048V13.0268C21.0015 12.7978 20.9243 12.5753 20.7814 12.3964C20.6386 12.2175 20.4386 12.093 20.215 12.0438C19.7133 11.9461 19.1934 12.0167 18.736 12.2448C17.992 12.6008 17.556 13.3958 17.556 14.2228V14.2778C16.9992 14.1642 16.421 14.224 15.8993 14.4493C15.3775 14.6745 14.9375 15.0544 14.6384 15.5376C14.3393 16.0208 14.1956 16.584 14.2266 17.1515C14.2577 17.7189 14.462 18.2631 14.812 18.7108C14.0283 18.8342 13.3145 19.2333 12.799 19.8363C12.2834 20.4393 12.0001 21.2065 12 21.9998C12 23.1778 12.611 24.2108 13.533 24.8118C13.103 25.5828 12.962 26.5578 13.299 27.5958ZM29.188 18.7108C29.538 18.2631 29.7423 17.7189 29.7734 17.1515C29.8044 16.584 29.6607 16.0208 29.3616 15.5376C29.0625 15.0544 28.6225 14.6745 28.1007 14.4493C27.579 14.224 27.0008 14.1642 26.444 14.2778V14.2228C26.444 13.3968 26.007 12.6008 25.263 12.2448C24.8059 12.0169 24.2864 11.9463 23.785 12.0438C23.5614 12.093 23.3614 12.2175 23.2186 12.3964C23.0757 12.5753 22.9985 12.7978 23 13.0268V30.8038C23 31.1688 23.192 31.5158 23.516 31.6858C23.894 31.8848 24.32 31.9998 24.777 31.9998C25.4175 31.9997 26.0383 31.7784 26.5344 31.3733C27.0306 30.9683 27.3717 30.4043 27.5 29.7768H27.556C28.956 29.7768 30.27 28.9268 30.702 27.5948C31.039 26.5568 30.898 25.5818 30.468 24.8108C30.9377 24.5073 31.3239 24.0911 31.5915 23.6001C31.8591 23.1091 31.9995 22.559 32 21.9998C31.9999 21.2065 31.7166 20.4393 31.201 19.8363C30.6855 19.2333 29.9717 18.8342 29.188 18.7108Z" fill="#CB08F0"/>
</svg>
