<svg width="44" height="44" viewBox="0 0 44 44" fill="none" xmlns="http://www.w3.org/2000/svg">
<rect width="44" height="44" rx="8" fill="white"/>
<g clip-path="url(#clip0_116_1340)">
<path d="M21.2 10V13.2H22.8V10H21.2ZM15.3664 15.8336L12.9664 13.4336L11.8336 14.5664L14.2336 16.9664L15.3664 15.8336ZM29.7664 16.9664L32.1664 14.5664L31.0336 13.4336L28.6336 15.8336L29.7664 16.9664ZM22 14.8C20.4749 14.8001 19.001 15.3503 17.8488 16.3496C16.6967 17.3489 15.9437 18.7302 15.728 20.24L15.712 20.352C15.5903 21.1932 15.6395 22.0503 15.8567 22.872C16.0739 23.6937 16.4546 24.4632 16.976 25.1344C17.5888 25.9264 18 26.6832 18 27.4416V30C18 30.2122 18.0843 30.4157 18.2343 30.5657C18.3843 30.7157 18.5878 30.8 18.8 30.8H25.2C25.4122 30.8 25.6157 30.7157 25.7657 30.5657C25.9157 30.4157 26 30.2122 26 30V27.4416C26 26.6832 26.4112 25.9264 27.024 25.1344C28.032 23.832 28.5408 22.1344 28.288 20.3504L28.272 20.2384C28.056 18.7289 27.3028 17.3479 26.1507 16.349C24.9986 15.35 23.5249 14.8 22 14.8ZM10 22.8H13.2V21.2H10V22.8ZM30.8 22.8H34V21.2H30.8V22.8ZM19.6 34H24.4V32.4H19.6V34Z" fill="#CB08F0"/>
</g>
<defs>
<clipPath id="clip0_116_1340">
<rect width="24" height="24" fill="white" transform="translate(10 10)"/>
</clipPath>
</defs>
</svg>
