<svg width="24" height="17" viewBox="0 0 24 17" fill="none" xmlns="http://www.w3.org/2000/svg">
<path fill-rule="evenodd" clip-rule="evenodd" d="M13.8 6.55967e-07C14.5364 -1.69045e-05 15.2651 0.1506 15.9412 0.44259C16.6173 0.73458 17.2265 1.16177 17.7313 1.6979C18.2362 2.23403 18.6261 2.86776 18.877 3.56014C19.1279 4.25251 19.2346 4.98889 19.1904 5.724H19.2L19.1988 7.1964C20.4303 7.19608 21.6148 7.6691 22.5073 8.51762C23.3999 9.36615 23.9321 10.5253 23.994 11.7552L24 11.9952C23.9991 13.2261 23.5253 14.4095 22.6767 15.3011C21.828 16.1926 20.6693 16.7241 19.44 16.7856L19.2 16.7916H19.1988L19.2 16.8H4.8C3.5269 16.7968 2.30693 16.2893 1.40727 15.3885C0.507614 14.4877 0.00158346 13.2671 0 11.994C0.0002142 10.8882 0.382223 9.81639 1.08146 8.95973C1.78069 8.10307 2.75426 7.51411 3.8376 7.2924C3.57121 6.59645 3.52735 5.83499 3.71208 5.11305C3.8968 4.39112 4.30101 3.74431 4.86894 3.26184C5.43686 2.77938 6.14051 2.48504 6.88281 2.41944C7.6251 2.35384 8.36947 2.52021 9.0132 2.8956C9.47059 2.02185 10.1585 1.29004 11.0024 0.779584C11.8462 0.269127 12.8138 -0.000485376 13.8 6.55967e-07ZM13.7448 4.8H11.3448V10.7064L8.4 10.704L12.5448 15.5952L16.7016 10.7076H13.7448V4.8Z" fill="white"/>
</svg>
