<svg width="24" height="24" viewBox="0 0 24 24" fill="none" xmlns="http://www.w3.org/2000/svg">
<path fill-rule="evenodd" clip-rule="evenodd" d="M6.685 3.72366L2 8.43566H13.313V15.5627H6.685V8.43566H2V18.8957C2 19.6577 2.614 20.2757 3.371 20.2757H16.513C17.27 20.2757 17.883 19.6577 17.883 18.8957V15.9257L20.892 18.4057C20.9935 18.4848 21.1152 18.5339 21.2432 18.5471C21.3712 18.5604 21.5003 18.5375 21.6159 18.4808C21.7315 18.4242 21.8288 18.3362 21.8967 18.2269C21.9646 18.1176 22.0004 17.9914 22 17.8627V6.25166C22.0006 6.12133 21.9642 5.99352 21.8948 5.88319C21.8254 5.77285 21.7261 5.68455 21.6084 5.62863C21.4906 5.57271 21.3594 5.55148 21.2301 5.56742C21.1007 5.58337 20.9786 5.63582 20.878 5.71866L17.884 8.18766V5.10266C17.884 4.34066 17.27 3.72266 16.513 3.72266L6.685 3.72366Z" fill="white"/>
</svg>
