<svg width="24" height="24" viewBox="0 0 24 24" fill="none" xmlns="http://www.w3.org/2000/svg">
<path d="M19.1698 17C17.6228 17 15.9918 15.274 14.9098 13.85C14.3038 13.051 13.9998 12.652 13.9998 12C13.9998 11.348 14.3038 10.949 14.9098 10.15C15.9928 8.726 17.6238 7 19.1698 7C21.9598 7 23.0028 9.75 20.8468 12C23.0028 14.25 21.9598 17 19.1698 17ZM2.61177 17.74V18C2.61177 18.943 2.61177 19.414 2.90477 19.707C3.19577 20 3.66777 20 4.61077 20H5.72277C6.24077 20 6.49977 20 6.73177 19.867C6.96377 19.734 7.07977 19.533 7.31377 19.131C8.85277 16.485 9.71877 12.728 8.22377 10.221C8.1231 10.0523 8.00044 9.90233 7.85577 9.771C7.70871 9.63644 7.53614 9.53276 7.34829 9.46609C7.16044 9.39943 6.96112 9.37113 6.76213 9.38288C6.56315 9.39463 6.36855 9.44619 6.18984 9.53449C6.01114 9.6228 5.85198 9.74607 5.72177 9.897C5.60761 10.0172 5.52514 10.164 5.48177 10.324C5.49577 10.204 5.51144 10.089 5.52877 9.979C5.67377 9.068 6.16177 8.303 6.69077 7.603L8.05577 5.795C8.28995 5.47227 8.41607 5.08374 8.41607 4.685C8.41607 4.28626 8.28995 3.89773 8.05577 3.575C7.62277 3.002 6.90977 2.826 6.32777 3.189C5.64977 3.612 4.78277 4.208 4.25277 4.78C3.72277 5.352 3.24877 6.206 2.91277 6.902C2.53977 7.674 2.32577 8.526 2.18477 9.393C1.90077 11.151 1.94477 12.983 2.30277 14.723C2.5071 15.7157 2.61129 16.7265 2.61177 17.74Z" fill="white"/>
</svg>
