<svg width="17" height="20" viewBox="0 0 17 20" fill="none" xmlns="http://www.w3.org/2000/svg">
<path d="M3 2.83023C3 4.37723 4.726 6.00823 6.15 7.09023C6.949 7.69623 7.348 8.00023 8 8.00023C8.652 8.00023 9.051 7.69623 9.85 7.09023C11.274 6.00723 13 4.37623 13 2.83023C13 0.0402288 10.25 -1.00277 8 1.15323C5.75 -1.00277 3 0.0402288 3 2.83023ZM2.26 19.3882H2C1.057 19.3882 0.586 19.3882 0.293 19.0952C2.08616e-07 18.8042 0 18.3322 0 17.3892V16.2772C0 15.7592 -1.04308e-07 15.5002 0.133 15.2682C0.266 15.0362 0.467 14.9202 0.869 14.6862C3.515 13.1472 7.272 12.2812 9.779 13.7762C9.94767 13.8769 10.0977 13.9996 10.229 14.1442C10.3636 14.2913 10.4672 14.4639 10.5339 14.6517C10.6006 14.8396 10.6289 15.0389 10.6171 15.2379C10.6054 15.4368 10.5538 15.6315 10.4655 15.8102C10.3772 15.9889 10.2539 16.148 10.103 16.2782C9.98276 16.3924 9.83603 16.4749 9.676 16.5182C9.796 16.5042 9.911 16.4886 10.021 16.4712C10.932 16.3262 11.697 15.8382 12.397 15.3092L14.205 13.9442C14.5277 13.71 14.9163 13.5839 15.315 13.5839C15.7137 13.5839 16.1023 13.71 16.425 13.9442C16.998 14.3772 17.174 15.0902 16.811 15.6722C16.388 16.3502 15.792 17.2172 15.22 17.7472C14.648 18.2772 13.794 18.7512 13.098 19.0872C12.326 19.4602 11.474 19.6742 10.607 19.8152C8.849 20.0992 7.017 20.0552 5.277 19.6972C4.28432 19.4929 3.27349 19.3887 2.26 19.3882Z" fill="white"/>
</svg>
