<svg width="24" height="24" viewBox="0 0 24 24" fill="none" xmlns="http://www.w3.org/2000/svg">
<path fill-rule="evenodd" clip-rule="evenodd" d="M8.25 5.25C8.25 4.25544 8.64509 3.30161 9.34835 2.59835C10.0516 1.89509 11.0054 1.5 12 1.5C12.9946 1.5 13.9484 1.89509 14.6517 2.59835C15.3549 3.30161 15.75 4.25544 15.75 5.25V12C15.75 12.9946 15.3549 13.9484 14.6517 14.6517C13.9484 15.3549 12.9946 15.75 12 15.75C11.0054 15.75 10.0516 15.3549 9.34835 14.6517C8.64509 13.9484 8.25 12.9946 8.25 12V5.25ZM6.75 9V12C6.75 13.3924 7.30312 14.7277 8.28769 15.7123C9.27226 16.6969 10.6076 17.25 12 17.25C13.3924 17.25 14.7277 16.6969 15.7123 15.7123C16.6969 14.7277 17.25 13.3924 17.25 12V9H18.75V12C18.7503 13.6606 18.1385 15.263 17.0316 16.5008C15.9247 17.7386 14.4003 18.525 12.75 18.7095V21H18V22.5H6V21H11.25V18.7095C9.59971 18.525 8.07534 17.7386 6.96842 16.5008C5.86149 15.263 5.24968 13.6606 5.25 12V9H6.75Z" fill="white"/>
</svg>
