<svg width="32" height="32" viewBox="0 0 32 32" fill="none" xmlns="http://www.w3.org/2000/svg">
<path d="M11.2 8.32031C12.0487 8.32031 12.8627 8.65746 13.4628 9.25757C14.0629 9.85769 14.4 10.6716 14.4 11.5203C14.4 12.1123 14.224 12.6563 13.952 13.1203C13.952 13.1203 12.8 12.8003 11.2 12.8003C9.60003 12.8003 8.44803 13.1203 8.44803 13.1203C8.17603 12.6563 8.00003 12.1123 8.00003 11.5203C8.00003 10.6716 8.33717 9.85769 8.93729 9.25757C9.53741 8.65746 10.3513 8.32031 11.2 8.32031ZM20.8 8.32031C22.576 8.32031 24 9.74431 24 11.5203C24 12.1123 23.824 12.6563 23.552 13.1203C23.552 13.1203 22.4 12.8003 20.8 12.8003C19.2 12.8003 18.048 13.1203 18.048 13.1203C17.776 12.6563 17.6 12.1123 17.6 11.5203C17.6 9.74431 19.024 8.32031 20.8 8.32031ZM16 30.2403C18.9022 30.2426 21.7324 29.3367 24.0938 27.6495C26.4553 25.9624 28.2296 23.5786 29.168 20.8323L27.056 20.0963C25.44 24.8323 20.992 28.0003 16 28.0003C11.008 28.0003 6.56003 24.8323 4.94403 20.0963L2.83203 20.8323C3.77049 23.5786 5.54479 25.9624 7.90622 27.6495C10.2676 29.3367 13.0978 30.2426 16 30.2403Z" fill="#CB08F0"/>
</svg>
